<?xml version="1.0" encoding="UTF-8"?>
<!DOCTYPE svg PUBLIC "-//W3C//DTD SVG 1.1//EN" "http://www.w3.org/Graphics/SVG/1.1/DTD/svg11.dtd">
<!-- Creator: CorelDRAW -->
<svg xmlns="http://www.w3.org/2000/svg" xml:space="preserve" width="6.82666in" height="6.82666in" style="shape-rendering:geometricPrecision; text-rendering:geometricPrecision; image-rendering:optimizeQuality; fill-rule:evenodd; clip-rule:evenodd"
viewBox="0 0 6.82666 6.82666"
 xmlns:xlink="http://www.w3.org/1999/xlink">
 <defs>
  <style type="text/css">
   <![CDATA[
    .fil2 {fill:none}
    .fil3 {fill:#212121}
    .fil1 {fill:#42A5F5}
    .fil4 {fill:#7FC3FA}
    .fil0 {fill:#90CAF9}
    .fil5 {fill:#ABD9FF}
    .fil6 {fill:white}
   ]]>
  </style>
   <clipPath id="id0">
    <path d="M3.41333 0c1.88513,0 3.41333,1.5282 3.41333,3.41333 0,1.88513 -1.5282,3.41333 -3.41333,3.41333 -1.88513,0 -3.41333,-1.5282 -3.41333,-3.41333 0,-1.88513 1.5282,-3.41333 3.41333,-3.41333z"/>
   </clipPath>
 </defs>
 <g id="Layer_x0020_1">
  <metadata id="CorelCorpID_0Corel-Layer"/>
  <path class="fil0" d="M3.41333 0c1.88513,0 3.41333,1.5282 3.41333,3.41333 0,1.88513 -1.5282,3.41333 -3.41333,3.41333 -1.88513,0 -3.41333,-1.5282 -3.41333,-3.41333 0,-1.88513 1.5282,-3.41333 3.41333,-3.41333z"/>
  <g style="clip-path:url(#id0)">
   <g id="_328320840">
    <g>
     <polygon id="_3293785201" class="fil1" points="5.23659,1.58217 9.02285,5.36844 9.02285,7.14627 5.23659,3.36 "/>
     <polygon id="_329378352" class="fil1" points="5.23659,3.36 9.02285,7.14627 9.02285,7.18948 5.23659,3.4032 "/>
     <polygon id="_329379168" class="fil1" points="5.23659,3.4032 9.02285,7.18948 9.02285,7.18968 5.23659,3.40341 "/>
     <polygon id="_329379480" class="fil1" points="5.23659,3.40341 9.02285,7.18968 9.02285,8.92611 5.23659,5.13984 "/>
     <polygon id="_329378784" class="fil1" points="5.23659,5.13984 9.02285,8.92611 9.02285,9.01293 5.23659,5.22666 "/>
     <polygon id="_329378904" class="fil1" points="5.23659,5.22666 9.02285,9.01293 8.93603,9.01293 5.14976,5.22666 "/>
     <polygon id="_329378832" class="fil1" points="5.14976,5.22666 8.93603,9.01293 5.46317,9.01293 1.6769,5.22666 "/>
     <polygon id="_329378976" class="fil1" points="1.6769,5.22666 5.46317,9.01293 5.37634,9.01293 1.59007,5.22666 "/>
     <polygon id="_329380296" class="fil1" points="5.23659,1.49333 9.02285,5.2796 9.02285,5.36844 5.23659,1.58217 "/>
    </g>
    <polygon id="_328321200" class="fil1" points="5.23659,1.58217 5.23659,3.36 5.23659,3.4032 5.23659,3.40341 5.23659,5.13984 5.23659,5.22666 5.14976,5.22666 1.6769,5.22666 1.59007,5.22666 1.59007,5.13984 1.59007,3.40341 1.59007,3.40033 1.59007,3.36 1.59007,1.58217 1.59007,1.49333 1.6769,1.49333 5.14976,1.49333 5.23659,1.49333 "/>
   </g>
  </g>
  <path class="fil2" d="M3.41333 0c1.88513,0 3.41333,1.5282 3.41333,3.41333 0,1.88513 -1.5282,3.41333 -3.41333,3.41333 -1.88513,0 -3.41333,-1.5282 -3.41333,-3.41333 0,-1.88513 1.5282,-3.41333 3.41333,-3.41333z"/>
  <polygon class="fil3" points="1.6769,1.49333 5.14976,1.49333 5.23659,1.49333 5.23659,1.58217 5.23659,3.36 5.23659,3.4032 5.23659,3.40341 5.23659,5.13984 5.23659,5.22666 5.14976,5.22666 1.6769,5.22666 1.59007,5.22666 1.59007,5.13984 1.59007,3.40341 1.59007,3.40033 1.59007,3.36 1.59007,1.58217 1.59007,1.49333 "/>
  <path class="fil4" d="M4.71566 2.5786l0 0.47752c0,0.0478425 -0.0195118,0.0912717 -0.0509409,0.122705 -0.0314331,0.0314291 -0.0748622,0.0509409 -0.122705,0.0509409l-2.25736 0c-0.0478386,0 -0.0912677,-0.0195118 -0.122705,-0.0509409 -0.0314252,-0.0314331 -0.050937,-0.0748622 -0.050937,-0.122705l0 -0.47752 2.60465 0z"/>
  <path class="fil5" d="M2.28465 1.92744l2.25736 0c0.0478425,0 0.0912717,0.0198937 0.122705,0.0519331 0.0314291,0.0320512 0.0509409,0.0763346 0.0509409,0.12511l0 0.48652 0 0.00034252 -2.60465 0 0 -0.0029252 0 -0.483937c0,-0.0487756 0.0195118,-0.0930591 0.050937,-0.12511 0.031437,-0.0320394 0.0748661,-0.0519331 0.122705,-0.0519331z"/>
  <path class="fil4" d="M4.71566 4.14139l0 0.47752c0,0.0478386 -0.0195118,0.0912717 -0.0509409,0.122705 -0.0314331,0.0314252 -0.0748622,0.0509409 -0.122705,0.0509409l-2.25736 0c-0.0478386,0 -0.0912677,-0.0195157 -0.122705,-0.0509409 -0.0314252,-0.0314331 -0.050937,-0.0748661 -0.050937,-0.122705l0 -0.47752 2.60465 0z"/>
  <path class="fil5" d="M2.28465 3.49022l2.25736 0c0.0478425,0 0.0912717,0.0198976 0.122705,0.051937 0.0314291,0.0320512 0.0509409,0.0763346 0.0509409,0.125106l0 0.486524 0 0.00034252 -2.60465 0 0 -0.0029252 0 -0.483941c0,-0.0487717 0.0195118,-0.0930551 0.050937,-0.125106 0.031437,-0.0320394 0.0748661,-0.051937 0.122705,-0.051937z"/>
  <polygon class="fil6" points="1.93737,1.92744 1.93737,2.27472 1.76372,2.27472 1.76372,1.92744 "/>
  <polygon class="fil6" points="1.93737,2.55689 1.93737,2.90418 1.76372,2.90418 1.76372,2.55689 "/>
  <polygon class="fil6" points="1.93737,4.44526 1.93737,4.79255 1.76372,4.79255 1.76372,4.44526 "/>
  <polygon class="fil6" points="1.93737,3.81581 1.93737,4.1631 1.76372,4.1631 1.76372,3.81581 "/>
  <polygon class="fil6" points="1.93737,3.18635 1.93737,3.53364 1.76372,3.53364 1.76372,3.18635 "/>
  <polygon class="fil6" points="5.06294,4.44526 5.06294,4.79255 4.8893,4.79255 4.8893,4.44526 "/>
  <polygon class="fil6" points="5.06294,3.81581 5.06294,4.1631 4.8893,4.1631 4.8893,3.81581 "/>
  <polygon class="fil6" points="5.06294,2.55689 5.06294,2.90418 4.8893,2.90418 4.8893,2.55689 "/>
  <polygon class="fil6" points="5.06294,3.18635 5.06294,3.53364 4.8893,3.53364 4.8893,3.18635 "/>
  <polygon class="fil6" points="5.06294,1.92744 5.06294,2.27472 4.8893,2.27472 4.8893,1.92744 "/>
 </g>
</svg>
